<svg width="16" height="16" viewBox="0 0 16 16" fill="none" xmlns="http://www.w3.org/2000/svg">
<path d="M10.6589 14L8.26756 10.4857C8.16722 10.4971 8.01672 10.5029 7.81605 10.5029H5.17391V14H3V2H7.81605C8.83055 2 9.71126 2.17143 10.4582 2.51429C11.2163 2.85714 11.796 3.34857 12.1973 3.98857C12.5987 4.62857 12.7993 5.38857 12.7993 6.26857C12.7993 7.17143 12.5819 7.94857 12.1472 8.6C11.7235 9.25143 11.1104 9.73714 10.3077 10.0571L13 14H10.6589ZM10.6087 6.26857C10.6087 5.50286 10.3634 4.91429 9.87291 4.50286C9.38239 4.09143 8.66332 3.88571 7.71572 3.88571H5.17391V8.66857H7.71572C8.66332 8.66857 9.38239 8.46286 9.87291 8.05143C10.3634 7.62857 10.6087 7.03429 10.6087 6.26857Z" fill="black"/>
</svg>
